<mxfile host="Electron" agent="Mozilla/5.0 (Windows NT 10.0; Win64; x64) AppleWebKit/537.36 (KHTML, like Gecko) draw.io/25.0.1 Chrome/128.0.6613.186 Electron/32.2.6 Safari/537.36" version="25.0.1">
  <diagram name="Page-1" id="GVB7B1ATJMoWKFyExFkl">
    <mxGraphModel dx="2074" dy="836" grid="1" gridSize="10" guides="1" tooltips="1" connect="1" arrows="1" fold="1" page="1" pageScale="1" pageWidth="827" pageHeight="1169" math="0" shadow="0">
      <root>
        <mxCell id="0" />
        <mxCell id="1" parent="0" />
        <mxCell id="br9rFA7PXche36DZ53Gb-3" value="" style="edgeStyle=orthogonalEdgeStyle;rounded=0;orthogonalLoop=1;jettySize=auto;html=1;" edge="1" parent="1" source="br9rFA7PXche36DZ53Gb-1" target="br9rFA7PXche36DZ53Gb-2">
          <mxGeometry relative="1" as="geometry" />
        </mxCell>
        <mxCell id="br9rFA7PXche36DZ53Gb-5" value="" style="edgeStyle=orthogonalEdgeStyle;rounded=0;orthogonalLoop=1;jettySize=auto;html=1;" edge="1" parent="1" source="br9rFA7PXche36DZ53Gb-1" target="br9rFA7PXche36DZ53Gb-4">
          <mxGeometry relative="1" as="geometry" />
        </mxCell>
        <mxCell id="br9rFA7PXche36DZ53Gb-1" value="&lt;b&gt;&lt;i&gt;Automoblile&amp;nbsp;&lt;/i&gt;&lt;/b&gt;" style="rounded=1;whiteSpace=wrap;html=1;fillColor=#f8cecc;gradientColor=#ea6b66;strokeColor=#b85450;" vertex="1" parent="1">
          <mxGeometry x="300" y="70" width="120" height="60" as="geometry" />
        </mxCell>
        <mxCell id="br9rFA7PXche36DZ53Gb-13" value="" style="edgeStyle=orthogonalEdgeStyle;rounded=0;orthogonalLoop=1;jettySize=auto;html=1;" edge="1" parent="1" source="br9rFA7PXche36DZ53Gb-2" target="br9rFA7PXche36DZ53Gb-12">
          <mxGeometry relative="1" as="geometry" />
        </mxCell>
        <mxCell id="br9rFA7PXche36DZ53Gb-2" value="2000 EMP&amp;nbsp;" style="whiteSpace=wrap;html=1;fillColor=#f8cecc;strokeColor=#b85450;rounded=1;gradientColor=#ea6b66;" vertex="1" parent="1">
          <mxGeometry x="500" y="70" width="120" height="60" as="geometry" />
        </mxCell>
        <mxCell id="br9rFA7PXche36DZ53Gb-7" value="" style="edgeStyle=orthogonalEdgeStyle;rounded=0;orthogonalLoop=1;jettySize=auto;html=1;" edge="1" parent="1" source="br9rFA7PXche36DZ53Gb-4" target="br9rFA7PXche36DZ53Gb-6">
          <mxGeometry relative="1" as="geometry" />
        </mxCell>
        <mxCell id="br9rFA7PXche36DZ53Gb-9" value="" style="edgeStyle=orthogonalEdgeStyle;rounded=0;orthogonalLoop=1;jettySize=auto;html=1;" edge="1" parent="1" source="br9rFA7PXche36DZ53Gb-4" target="br9rFA7PXche36DZ53Gb-8">
          <mxGeometry relative="1" as="geometry" />
        </mxCell>
        <mxCell id="br9rFA7PXche36DZ53Gb-11" value="" style="edgeStyle=orthogonalEdgeStyle;rounded=0;orthogonalLoop=1;jettySize=auto;html=1;" edge="1" parent="1" source="br9rFA7PXche36DZ53Gb-4" target="br9rFA7PXche36DZ53Gb-10">
          <mxGeometry relative="1" as="geometry" />
        </mxCell>
        <mxCell id="br9rFA7PXche36DZ53Gb-4" value="&lt;b&gt;&lt;i&gt;SSL CLOUD&amp;nbsp;&lt;/i&gt;&lt;/b&gt;" style="whiteSpace=wrap;html=1;fillColor=#fff2cc;strokeColor=#d6b656;rounded=1;gradientColor=#ffd966;" vertex="1" parent="1">
          <mxGeometry x="300" y="210" width="120" height="60" as="geometry" />
        </mxCell>
        <mxCell id="br9rFA7PXche36DZ53Gb-6" value="WEB DEVLPOMENT" style="whiteSpace=wrap;html=1;fillColor=#ffcd28;strokeColor=#d79b00;rounded=1;gradientColor=#ffa500;" vertex="1" parent="1">
          <mxGeometry x="160" y="360" width="120" height="60" as="geometry" />
        </mxCell>
        <mxCell id="br9rFA7PXche36DZ53Gb-8" value="Deployment&amp;nbsp;" style="whiteSpace=wrap;html=1;fillColor=#ffcd28;strokeColor=#d79b00;rounded=1;gradientColor=#ffa500;" vertex="1" parent="1">
          <mxGeometry x="300" y="360" width="120" height="60" as="geometry" />
        </mxCell>
        <mxCell id="br9rFA7PXche36DZ53Gb-10" value="Manage&amp;nbsp;" style="whiteSpace=wrap;html=1;fillColor=#ffcd28;strokeColor=#d79b00;rounded=1;gradientColor=#ffa500;" vertex="1" parent="1">
          <mxGeometry x="460" y="360" width="120" height="60" as="geometry" />
        </mxCell>
        <mxCell id="br9rFA7PXche36DZ53Gb-12" value="&lt;b&gt;Initial 1 year&lt;/b&gt;" style="whiteSpace=wrap;html=1;fillColor=#f8cecc;strokeColor=#b85450;rounded=1;gradientColor=#ea6b66;" vertex="1" parent="1">
          <mxGeometry x="590" y="160" width="120" height="60" as="geometry" />
        </mxCell>
        <mxCell id="br9rFA7PXche36DZ53Gb-15" style="edgeStyle=orthogonalEdgeStyle;rounded=0;orthogonalLoop=1;jettySize=auto;html=1;entryX=0.5;entryY=1;entryDx=0;entryDy=0;" edge="1" parent="1" source="br9rFA7PXche36DZ53Gb-14" target="br9rFA7PXche36DZ53Gb-8">
          <mxGeometry relative="1" as="geometry" />
        </mxCell>
        <mxCell id="br9rFA7PXche36DZ53Gb-14" value="&lt;b&gt;&lt;font style=&quot;font-size: 20px;&quot;&gt;Process&lt;/font&gt;&lt;/b&gt;&lt;div&gt;&lt;b&gt;&lt;font style=&quot;font-size: 20px;&quot;&gt;&lt;br&gt;&lt;/font&gt;&lt;/b&gt;&lt;/div&gt;&lt;div&gt;&lt;b&gt;&lt;font style=&quot;font-size: 20px;&quot;&gt;&amp;nbsp;&lt;br&gt;Charges&amp;nbsp;&lt;/font&gt;&lt;/b&gt;&lt;/div&gt;" style="rounded=1;whiteSpace=wrap;html=1;fillColor=#dae8fc;gradientColor=#7ea6e0;strokeColor=#6c8ebf;" vertex="1" parent="1">
          <mxGeometry x="60" y="490" width="600" height="170" as="geometry" />
        </mxCell>
        <mxCell id="br9rFA7PXche36DZ53Gb-16" value="&lt;b&gt;&lt;i&gt;&lt;font style=&quot;font-size: 13px;&quot;&gt;1-- ADMIN PANEL ---Company Admin&lt;/font&gt;&lt;/i&gt;&lt;/b&gt;&lt;div&gt;&lt;b&gt;&lt;i&gt;&lt;font style=&quot;font-size: 13px;&quot;&gt;Functionality -- complexity / feature&amp;nbsp;&lt;/font&gt;&lt;/i&gt;&lt;/b&gt;&lt;/div&gt;&lt;div&gt;&lt;b&gt;&lt;i&gt;&lt;font style=&quot;font-size: 13px;&quot;&gt;&lt;br&gt;&lt;/font&gt;&lt;/i&gt;&lt;/b&gt;&lt;/div&gt;&lt;div&gt;&lt;b&gt;&lt;i&gt;&lt;font style=&quot;font-size: 13px;&quot;&gt;React ---Frontend&amp;nbsp;&amp;nbsp;&lt;/font&gt;&lt;/i&gt;&lt;/b&gt;&lt;/div&gt;&lt;div&gt;&lt;b&gt;&lt;i&gt;&lt;font style=&quot;font-size: 13px;&quot;&gt;Backend -- Node JS / Phython --Admin panel&amp;nbsp;&lt;/font&gt;&lt;/i&gt;&lt;/b&gt;&lt;/div&gt;&lt;div&gt;&lt;b&gt;&lt;i&gt;&lt;font style=&quot;font-size: 13px;&quot;&gt;AZURE --Server --Host&amp;nbsp;&lt;/font&gt;&lt;/i&gt;&lt;/b&gt;&lt;/div&gt;&lt;div&gt;&lt;b&gt;&lt;i&gt;&lt;font style=&quot;font-size: 13px;&quot;&gt;Domain--Godady&amp;nbsp;&lt;/font&gt;&lt;/i&gt;&lt;/b&gt;&lt;/div&gt;&lt;div&gt;&lt;b&gt;&lt;i&gt;&lt;font style=&quot;font-size: 13px;&quot;&gt;DB-- Mongo DB -- S3- Bucket&amp;nbsp;&lt;/font&gt;&lt;/i&gt;&lt;/b&gt;&lt;/div&gt;" style="rounded=1;whiteSpace=wrap;html=1;fillColor=#f5f5f5;gradientColor=#b3b3b3;strokeColor=#666666;" vertex="1" parent="1">
          <mxGeometry x="1060" y="200" width="300" height="380" as="geometry" />
        </mxCell>
      </root>
    </mxGraphModel>
  </diagram>
</mxfile>
